<?xml version="1.0" encoding="utf-8"?>
<!-- Generator: Adobe Illustrator 18.1.1, SVG Export Plug-In . SVG Version: 6.00 Build 0)  -->
<svg version="1.1" id="Layer_1" xmlns="http://www.w3.org/2000/svg" xmlns:xlink="http://www.w3.org/1999/xlink" x="0px" y="0px"
	 viewBox="-90 54 19 23" enable-background="new -90 54 19 23" xml:space="preserve">
<title>icn_sharepoint_24x24</title>
<desc>Created with Sketch.</desc>
<g id="Page-1">
	<g id="icn_sharepoint_24x24">
		<path id="Fill-6" fill="#444444" d="M-84.4,54.5v3.2c0,0.3-0.2,0.5-0.5,0.5H-88c-0.4,0-0.5-0.5-0.4-0.7c0.2-0.2,3.1-3.3,3.2-3.4
			C-84.9,53.9-84.4,54-84.4,54.5"/>
		<path id="Fill-8" fill="#444444" d="M-83.3,54c0,0,0,3,0,4c0,1-0.6,1.4-1.5,1.4h-3.6V61l4.5,0.1l2.3,2.1h7.5v-8.6
			c0-0.3-0.2-0.6-0.6-0.6H-83.3z"/>
		<g id="Group-Copy-2" transform="translate(0.000000, 8.275862)">
			<g id="Group-3" transform="translate(0.000000, 0.221675)">
				<g id="Clip-2">
				</g>
				<defs>
					<filter id="Adobe_OpacityMaskFilter" filterUnits="userSpaceOnUse" x="-90" y="54.1" width="19" height="14.4">
						<feColorMatrix  type="matrix" values="1 0 0 0 0  0 1 0 0 0  0 0 1 0 0  0 0 0 1 0"/>
					</filter>
				</defs>
				<mask maskUnits="userSpaceOnUse" x="-90" y="54.1" width="19" height="14.4" id="mask-2">
					<g filter="url(#Adobe_OpacityMaskFilter)">
						<polygon id="path-1" fill="#FFFFFF" points="-90,54.1 -71,54.1 -71,68.5 -90,68.5 						"/>
					</g>
				</mask>
				<path id="Fill-1" mask="url(#mask-2)" fill="#444444" d="M-72,56.1h-10.2l-2.3-2H-89c-0.7,0-1,0.3-1,1.1v12.2
					c0,0.8,0.3,1.1,1,1.1h17c0.7,0,1-0.3,1-1.1V57.2C-71,56.4-71.3,56.1-72,56.1z"/>
			</g>
		</g>
	</g>
</g>
</svg>
