<?xml version="1.0" encoding="utf-8"?>
<!-- Generator: Adobe Illustrator 18.1.1, SVG Export Plug-In . SVG Version: 6.00 Build 0)  -->
<svg version="1.1" id="Layer_1" xmlns="http://www.w3.org/2000/svg" xmlns:xlink="http://www.w3.org/1999/xlink" x="0px" y="0px"
	 viewBox="-90 54 18 24" enable-background="new -90 54 18 24" xml:space="preserve">
<title>icn_idraft_24x24</title>
<desc>Created with Sketch.</desc>
<g id="icn_idraft_24x24">
	<g id="Group-3" transform="translate(3.448310, 0.092427)">
		<g id="Clip-2">
		</g>
		<defs>
			<filter id="Adobe_OpacityMaskFilter" filterUnits="userSpaceOnUse" x="-90" y="54" width="14.5" height="19.8">
				<feColorMatrix  type="matrix" values="1 0 0 0 0  0 1 0 0 0  0 0 1 0 0  0 0 0 1 0"/>
			</filter>
		</defs>
		<mask maskUnits="userSpaceOnUse" x="-90" y="54" width="14.5" height="19.8" id="mask-2">
			<g filter="url(#Adobe_OpacityMaskFilter)">
				<polygon id="path-1" fill="#FFFFFF" points="-90,54 -75.5,54 -75.5,73.8 -90,73.8 				"/>
			</g>
		</mask>
		<path id="Fill-1" mask="url(#mask-2)" fill="#0033AA" d="M-75.5,54.8V73c0,0.5-0.4,0.8-0.8,0.8h-0.8V56.5c0-0.5-0.4-0.9-0.9-0.9
			h-12v-0.7c0-0.5,0.4-0.8,0.8-0.8h12.9C-75.9,54-75.5,54.4-75.5,54.8"/>
	</g>
	<g id="Group-6" transform="translate(0.000000, 3.399871)">
		<g id="Clip-5">
		</g>
		<defs>
			<filter id="Adobe_OpacityMaskFilter_1_" filterUnits="userSpaceOnUse" x="-90" y="54" width="14.4" height="19.8">
				<feColorMatrix  type="matrix" values="1 0 0 0 0  0 1 0 0 0  0 0 1 0 0  0 0 0 1 0"/>
			</filter>
		</defs>
		<mask maskUnits="userSpaceOnUse" x="-90" y="54" width="14.4" height="19.8" id="mask-4">
			<g filter="url(#Adobe_OpacityMaskFilter_1_)">
				<polygon id="path-3" fill="#FFFFFF" points="-90,54 -75.6,54 -75.6,73.8 -90,73.8 				"/>
			</g>
		</mask>
		<path id="Fill-4" mask="url(#mask-4)" fill="#0033AA" d="M-78.7,70.1c-0.5-0.1-1.2-0.4-1.8-0.3c-0.1,0-0.1,0-0.2,0
			c0,0,0,0.1,0,0.2c0,0.1,0.1,0.3,0,0.4c0,0.1,0,0.2-0.1,0.3c-0.1,0.3-0.6,0.4-0.8,0.3c-0.4-0.2-0.6-0.9-0.9-1.3
			c0-0.1-0.1-0.2-0.1-0.2c0,0.1,0,0.2,0,0.3c0,0.2,0.1,0.3,0.1,0.5c0.1,0.3-0.8,0.6-0.9,0.4c0,0,0,0,0-0.1c-0.3-0.6-0.7-1.1-1.2-1.4
			c-1-0.6-0.8,0.5-0.4,1.2c0.2,0.4-0.7,0.7-0.9,0.4c-0.5-0.9-0.7-2,0.4-2.4c0.8-0.3,1.5,0,2.1,0.6c0.1-0.1,0.3-0.2,0.5-0.3
			c0.5-0.2,0.9-0.1,1.2,0.4c0.1,0.1,0.2,0.3,0.2,0.5c0.1-0.2,0.3-0.2,0.5-0.3c0.8-0.2,1.9,0.1,2.7,0.3
			C-77.6,69.7-78.4,70.2-78.7,70.1 M-87.4,64.2c0-0.2,0.1-0.3,0.2-0.4s0.3-0.2,0.4-0.2h4.1c0.3,0,0.6,0.3,0.6,0.6
			c0,0.2-0.1,0.3-0.2,0.4c-0.1,0.1-0.2,0.2-0.4,0.2h-4.1C-87.1,64.7-87.4,64.5-87.4,64.2 M-87.2,60.6c0.1-0.1,0.3-0.2,0.4-0.2h8.3
			c0.3,0,0.6,0.3,0.6,0.6c0,0.2-0.1,0.3-0.2,0.4s-0.3,0.2-0.4,0.2h-8.3c-0.3,0-0.6-0.3-0.6-0.6C-87.4,60.8-87.3,60.7-87.2,60.6
			 M-87.2,57.4c0.1-0.1,0.3-0.2,0.4-0.2h8.3c0.3,0,0.6,0.3,0.6,0.6c0,0.2-0.1,0.3-0.2,0.4c-0.1,0.1-0.3,0.2-0.4,0.2h-8.3
			c-0.3,0-0.6-0.3-0.6-0.6C-87.4,57.7-87.3,57.5-87.2,57.4 M-76.5,54h-12.6c-0.5,0-0.9,0.4-0.9,0.9v17.9c0,0.5,0.4,0.9,0.9,0.9h12.6
			c0.5,0,0.9-0.4,0.9-0.9V55C-75.6,54.4-76,54-76.5,54"/>
	</g>
</g>
</svg>
